<?xml version="1.0" encoding="iso-8859-1"?>
<!-- Uploaded to: SVG Repo, www.svgrepo.com, Generator: SVG Repo Mixer Tools -->
<!DOCTYPE svg PUBLIC "-//W3C//DTD SVG 1.1//EN" "http://www.w3.org/Graphics/SVG/1.1/DTD/svg11.dtd">
<svg fill="#000000" version="1.1" id="Capa_1" xmlns="http://www.w3.org/2000/svg" xmlns:xlink="http://www.w3.org/1999/xlink" 
	 width="800px" height="800px" viewBox="0 0 44.197 44.197"
	 xml:space="preserve">
<g>
	<g>
		<path d="M22.099,0C11.566,0,3,8.567,3,19.099c0,1.113,0.906,2.02,2.019,2.02c0.284,0,0.554-0.061,0.801-0.167
			c0.311,1.426,1.178,2.646,2.366,3.413l0.94,7.522c0.17,1.354,1.227,2.399,2.543,2.586l0.847,6.785
			c0.209,1.672,1.629,2.938,3.313,2.938h12.542c1.686,0,3.106-1.267,3.313-2.938l0.846-6.778c1.316-0.186,2.375-1.235,2.544-2.591
			l0.938-7.524c1.188-0.771,2.055-1.986,2.364-3.413c0.246,0.107,0.517,0.167,0.802,0.167c1.111,0,2.02-0.906,2.02-2.02
			C41.199,8.567,32.632,0,22.099,0z M11.142,14.369c-1.451,0-2.771,0.553-3.747,1.479C8.892,9.108,14.916,4.045,22.1,4.045
			c7.185,0,13.208,5.067,14.705,11.807c-0.977-0.926-2.297-1.483-3.75-1.483H11.142z"/>
	</g>
</g>
</svg>